<?xml version="1.0" encoding="UTF-8" standalone="no"?>
<!DOCTYPE svg PUBLIC "-//W3C//DTD SVG 1.1//EN" "http://www.w3.org/Graphics/SVG/1.1/DTD/svg11.dtd">
<svg version="1.1" xmlns="http://www.w3.org/2000/svg" xmlns:xlink="http://www.w3.org/1999/xlink" preserveAspectRatio="xMidYMid meet" viewBox="0 0 640 640" width="640" height="640"><defs><path d="M157.5 145.07C173.1 160.03 174.12 184.31 159.78 199.25C145.45 214.2 121.14 214.19 105.55 199.22C89.95 184.26 88.93 159.98 103.27 145.04C117.61 130.09 141.91 130.1 157.5 145.07Z" id="bNBEa1xYy"></path><path d="M217.24 91.47C227.53 112.92 220.73 137.61 202.05 146.57C183.38 155.53 159.86 145.38 149.57 123.92C139.28 102.47 146.08 77.78 164.76 68.82C183.43 59.86 206.95 70.01 217.24 91.47Z" id="d5DDqvEyq"></path><path d="M302.02 50.44C313.39 74.16 305.9 101.43 285.29 111.31C264.69 121.2 238.73 109.97 227.35 86.26C215.98 62.55 223.47 35.27 244.08 25.39C264.68 15.51 290.64 26.73 302.02 50.44Z" id="i1YjYI5tQD"></path><path d="M398.07 49.38C402.07 76.61 385.68 101.61 361.49 105.16C337.3 108.72 314.41 89.49 310.41 62.26C306.41 35.02 322.8 10.03 346.99 6.47C371.18 2.92 394.06 22.14 398.07 49.38Z" id="dBWFcZ8FT"></path><path d="M511.56 89.11C516.4 122.07 496.18 152.37 466.43 156.74C436.68 161.11 408.6 137.91 403.76 104.95C398.91 72 419.14 41.7 448.89 37.33C478.64 32.96 506.72 56.16 511.56 89.11Z" id="h1ONQ2Ja2g"></path><path d="M149.45 318.31C150.76 349.24 159.97 362.39 180.37 430.81C200.76 499.24 264.58 584.1 319.18 597.26C373.79 610.42 418.53 589.37 440.89 566.34C463.26 543.31 459.31 504.5 458.6 492C458.12 483.67 446.74 456.47 424.45 410.42C420.5 404.28 418.74 393.75 419.18 378.84C419.84 356.47 433 328.84 440.89 318.31C448.79 307.79 458.66 276.87 465.24 243.97C469.62 222.04 451.2 188.05 409.97 142C366.55 123.14 315.89 124.02 258 144.63C200.1 165.24 163.92 207.79 149.45 272.26C148.57 282.35 148.57 297.7 149.45 318.31Z" id="cdJOtjVCi"></path><radialGradient id="gradientaWZLvSM7C" gradientUnits="userSpaceOnUse" cx="307.33" cy="128.48" dx="307.33" dy="601.32" r="472.84"><stop style="stop-color: #000000;stop-opacity: 1" offset="0%"></stop><stop style="stop-color: #010000;stop-opacity: 1" offset="100%"></stop></radialGradient><path d="M234.03 262.39C234.03 262.76 234.03 263.05 234.03 263.05C234.03 263.05 234.03 262.76 234.03 262.39C234.03 262.03 234.03 261.74 234.03 261.74C234.03 261.87 234.03 262.03 234.03 262.39Z" id="c1qCM20833"></path><path d="M263 262.72C263 275.76 252.18 286.34 238.85 286.34C225.51 286.34 214.69 275.76 214.69 262.72C214.69 249.69 225.51 239.1 238.85 239.1C252.18 239.1 263 249.69 263 262.72Z" id="aW0sxdluS"></path><path d="M392.43 260.74C392.43 273.77 381.6 284.35 368.27 284.35C354.93 284.35 344.11 273.77 344.11 260.74C344.11 247.7 354.93 237.12 368.27 237.12C381.6 237.12 392.43 247.7 392.43 260.74Z" id="a36EVnXBMd"></path></defs><g><g><g><use xlink:href="#bNBEa1xYy" opacity="1" fill="#000000" fill-opacity="1"></use></g><g><use xlink:href="#d5DDqvEyq" opacity="1" fill="#000000" fill-opacity="1"></use></g><g><use xlink:href="#i1YjYI5tQD" opacity="1" fill="#000000" fill-opacity="1"></use></g><g><use xlink:href="#dBWFcZ8FT" opacity="1" fill="#000000" fill-opacity="1"></use></g><g><use xlink:href="#h1ONQ2Ja2g" opacity="1" fill="#000000" fill-opacity="1"></use></g><g><use xlink:href="#cdJOtjVCi" opacity="1" fill="url(#gradientaWZLvSM7C)"></use><g><use xlink:href="#cdJOtjVCi" opacity="1" fill-opacity="0" stroke="#000000" stroke-width="1" stroke-opacity="1"></use></g></g><g><use xlink:href="#c1qCM20833" opacity="1" fill="#f46eb1" fill-opacity="1"></use></g><g><use xlink:href="#aW0sxdluS" opacity="1" fill="#ffffff" fill-opacity="1"></use></g><g><use xlink:href="#a36EVnXBMd" opacity="1" fill="#ffffff" fill-opacity="1"></use></g></g></g></svg>